# File created by Blade
# Date/Time:  Tue Jan 27 19:05:11 2015
#---------------------------------------------------------
:version 1.10
:name HOM
:units
  mass 1.0
  length 1.000000
  angle deg
:documentation
     Acclaim Skeleton File
:root
   axis xyz
   order TX TY TZ RX RY RZ
   position 0.000000 0.000000 0.000000
   orientation 0 0 0
:bonedata
   begin
      id 1
      name Spine_dum
      direction 0.000000 1.000000 0.000000
      length 5.195262
      axis 0.0 0.0 0.0 xyz
   end
   begin
      id 2
      name LeftUpLeg_dum
      direction 1.000000 0.000000 0.000000
      length 3.351363
      axis 0.0 0.0 0.0 xyz
   end
   begin
      id 3
      name RightUpLeg_dum
      direction -1.000000 0.000000 0.000000
      length 3.351363
      axis 0.0 0.0 0.0 xyz
   end
   begin
      id 4
      name Spine
      direction 0.000000 1.000000 0.000000
      length 0.000000
      axis 0.0 0.0 0.0 xyz
      dof rx ry rz
   end
   begin
      id 5
      name Spine_dum1
      direction 0.000000 1.000000 0.000000
      length 15.653875
      axis 0.0 0.0 0.0 xyz
   end
   begin
      id 6
      name Spine_dum2
      direction 0.000000 1.000000 0.000000
      length 10.329768
      axis 0.0 0.0 0.0 xyz
   end
   begin
      id 7
      name Spine_dum3
      direction 0.000000 1.000000 0.000000
      length 10.329768
      axis 0.0 0.0 0.0 xyz
   end
   begin
      id 8
      name Head
      direction 0.000000 1.000000 0.000000
      length 4.527550
      axis 0.0 0.0 0.0 xyz
      dof rx ry rz
   end
   begin
      id 9
      name LeftShoulder
      direction 1.000000 0.000000 0.000000
      length 6.996006
      axis 0.0 0.0 -90.0 xyz
      dof rx ry rz
   end
   begin
      id 10
      name LeftArm
      direction 1.000000 0.000000 0.000000
      length 10.209302
      axis 0.0 0.0 -90.0 xyz
      dof rx ry rz
   end
   begin
      id 11
      name LeftForeArm
      direction 1.000000 0.000000 0.000000
      length 8.563163
      axis 0.0 0.0 -90.0 xyz
      dof ry rz rx
   end
   begin
      id 12
      name LeftHand
      direction 0.000000 0.000000 0.000000
      length 0.000000
      axis 0.0 0.0 -90.0 xyz
      dof rx ry rz
   end
   begin
      id 13
      name LeftHand_dum1
      direction 0.000000 0.000000 0.000000
      length 0.000000
      axis 0.0 0.0 -90.0 xyz
   end
   begin
      id 14
      name LeftHand_dum2
      direction 1.000000 0.000000 0.000000
      length 3.937000
      axis 0.0 0.0 -90.0 xyz
   end
   begin
      id 15
      name LeftHandThumb1
      direction 0.000000 0.000000 1.000000
      length 3.937000
      axis 0.0 0.0 -90.0 xyz
      dof rx rz ry
   end
   begin
      id 16
      name RightShoulder
      direction -1.000000 0.000000 0.000000
      length 6.996006
      axis 0.0 0.0 90.0 xyz
      dof rx ry rz
   end
   begin
      id 17
      name RightArm
      direction -1.000000 0.000000 0.000000
      length 10.209302
      axis 0.0 0.0 90.0 xyz
      dof rx ry rz
   end
   begin
      id 18
      name RightForeArm
      direction -1.000000 0.000000 0.000000
      length 8.563163
      axis 0.0 0.0 90.0 xyz
      dof ry rz rx
   end
   begin
      id 19
      name RightHand
      direction 0.000000 0.000000 0.000000
      length 0.000000
      axis 0.0 0.0 90.0 xyz
      dof rx ry rz
   end
   begin
      id 20
      name RightHand_dum1
      direction 0.000000 0.000000 0.000000
      length 0.000000
      axis 0.0 0.0 90.0 xyz
   end
   begin
      id 21
      name RightHand_dum2
      direction -1.000000 0.000000 0.000000
      length 3.937000
      axis 0.0 0.0 90.0 xyz
   end
   begin
      id 22
      name RightHandThumb1
      direction 0.000000 0.000000 1.000000
      length 3.937000
      axis 0.0 0.0 90.0 xyz
      dof rx rz ry
   end
   begin
      id 23
      name LeftUpLeg
      direction 0.000000 -1.000000 0.000000
      length 16.346831
      axis 0.0 0.0 0.0 xyz
      dof rx ry rz
   end
   begin
      id 24
      name LeftLeg
      direction 0.000000 -1.000000 0.000000
      length 13.959795
      axis 0.0 0.0 0.0 xyz
      dof rx ry rz
   end
   begin
      id 25
      name LeftFoot
      direction 0.000000 -0.258819 0.965926
      length 5.165550
      axis 15.0 0.0 0.0 xyz
      dof rx ry rz
   end
   begin
      id 26
      name LeftToeBase
      direction 0.000000 0.000000 1.000000
      length 2.952750
      axis 0.0 0.0 0.0 xyz
      dof rx ry rz
   end
   begin
      id 27
      name RightUpLeg
      direction 0.000000 -1.000000 0.000000
      length 16.346831
      axis 0.0 0.0 0.0 xyz
      dof rx ry rz
   end
   begin
      id 28
      name RightLeg
      direction 0.000000 -1.000000 0.000000
      length 13.959795
      axis 0.0 0.0 0.0 xyz
      dof rx ry rz
   end
   begin
      id 29
      name RightFoot
      direction 0.000000 -0.258819 0.965926
      length 5.165550
      axis 15.0 0.0 0.0 xyz
      dof rx ry rz
   end
   begin
      id 30
      name RightToeBase
      direction 0.000000 0.000000 1.000000
      length 2.952750
      axis 0.0 0.0 0.0 xyz
      dof rx ry rz
   end
:hierarchy
   begin
      root Spine_dum LeftUpLeg_dum RightUpLeg_dum
      Spine_dum Spine
      LeftUpLeg_dum LeftUpLeg
      RightUpLeg_dum RightUpLeg
      Spine Spine_dum1 Spine_dum2 Spine_dum3
      Spine_dum1 Head
      Spine_dum2 LeftShoulder
      Spine_dum3 RightShoulder
      LeftShoulder LeftArm
      LeftArm LeftForeArm
      LeftForeArm LeftHand
      LeftHand LeftHand_dum1 LeftHand_dum2
      LeftHand_dum1 LeftHandThumb1
      RightShoulder RightArm
      RightArm RightForeArm
      RightForeArm RightHand
      RightHand RightHand_dum1 RightHand_dum2
      RightHand_dum1 RightHandThumb1
      LeftUpLeg LeftLeg
      LeftLeg LeftFoot
      LeftFoot LeftToeBase
      RightUpLeg RightLeg
      RightLeg RightFoot
      RightFoot RightToeBase
   end

# File created by Blade
# Date/Time:  Tue Jan 27 19:05:02 2015
# Frame Rate: 120.000 fps
#------------------------------------------------------
:FULLY-SPECIFIED
:DEGREES
615
root -3.398373 31.706067 -4.899206 6.705948 21.980135 0.330894
Spine -4.794061 -6.889636 -3.294218
Head 18.634631 4.553134 2.176687
LeftShoulder -17.885596 14.365010 13.796988
LeftArm 18.425043 -40.926427 -72.884953
LeftForeArm -11.812406 -0.000000 83.177138
LeftHand -11.339829 -0.000000 21.554044
LeftHandThumb1 -26.253704 0.000000 33.147579
RightShoulder -12.872013 -3.459919 -12.499143
RightArm 6.393173 -35.655132 87.476792
RightForeArm -23.464776 -0.000000 21.608384
RightHand -14.804509 -0.000000 10.162812
RightHandThumb1 -24.326973 -0.000000 -32.862282
LeftUpLeg -9.289633 -22.339345 -5.118696
LeftLeg 17.250836 -0.000000 -0.000000
LeftFoot -21.032422 17.825180 -9.869659
LeftToeBase 10.236315 -0.000000 -0.000000
RightUpLeg -23.441057 19.784042 -6.058170
RightLeg 46.510406 -0.000000 -0.000000
RightFoot -27.718251 -21.096965 10.728409
RightToeBase -6.830851 -0.000000 0.000000
616
root -3.406018 31.712234 -4.905985 6.679167 21.924966 0.182457
Spine -4.753601 -6.834982 -3.216161
Head 18.717787 4.507261 2.230202
LeftShoulder -17.932259 14.338386 13.799261
LeftArm 18.481510 -40.946989 -72.876008
LeftForeArm -11.873843 -0.000000 83.116095
LeftHand -11.278312 -0.000000 21.672004
LeftHandThumb1 -26.253704 0.000000 33.147579
RightShoulder -12.867332 -3.461544 -12.493045
RightArm 6.369715 -35.605260 87.487577
RightForeArm -23.530012 -0.000000 21.791830
RightHand -14.819992 -0.000000 10.103395
RightHandThumb1 -24.326973 -0.000000 -32.862282
LeftUpLeg -9.334518 -22.466150 -4.962674
LeftLeg 17.251271 -0.000000 -0.000000
LeftFoot -21.079674 18.036313 -9.933388
LeftToeBase 10.163514 -0.000000 -0.000000
RightUpLeg -23.065926 19.759548 -6.051951
RightLeg 42.516961 -0.000000 -0.000000
RightFoot -27.328152 -20.270414 10.020602
RightToeBase -7.571373 -0.000000 0.000000
617
root -3.413662 31.716432 -4.917491 6.666627 21.830248 0.050876
Spine -4.714153 -6.724737 -3.156319
Head 18.773889 4.550959 2.268491
LeftShoulder -17.962092 14.350919 13.833166
LeftArm 18.646704 -41.008601 -73.013760
LeftForeArm -11.843861 -0.000000 83.010617
LeftHand -11.185427 0.000000 21.691040
LeftHandThumb1 -26.253704 0.000000 33.147579
RightShoulder -12.863022 -3.436169 -12.520280
RightArm 6.334299 -35.524266 87.558610
RightForeArm -23.667104 -0.000000 21.898219
RightHand -14.771839 -0.000000 10.039924
RightHandThumb1 -24.326973 -0.000000 -32.862282
LeftUpLeg -9.417427 -22.576673 -4.821144
LeftLeg 17.307301 -0.000000 -0.000000
LeftFoot -21.063944 18.294376 -9.892023
LeftToeBase 9.882785 -0.000000 -0.000000
RightUpLeg -22.724485 19.670348 -6.013856
RightLeg 38.661224 -0.000000 -0.000000
RightFoot -26.984647 -19.349012 9.607058
RightToeBase -7.962035 -0.000000 0.000000
618
root -3.422601 31.720263 -4.922444 6.638494 21.778867 -0.111693
Spine -4.684061 -6.644833 -3.063492
Head 18.869122 4.488000 2.292628
LeftShoulder -17.980696 14.290979 13.840317
LeftArm 18.752372 -41.081014 -73.047051
LeftForeArm -11.852907 -0.000000 82.932727
LeftHand -11.271889 0.000000 21.710411
LeftHandThumb1 -26.253704 0.000000 33.147579
RightShoulder -12.920082 -3.446131 -12.520665
RightArm 6.363003 -35.664544 87.524116
RightForeArm -23.586596 0.000000 22.050550
RightHand -14.818021 -0.000000 10.009192
RightHandThumb1 -24.326973 -0.000000 -32.862282
LeftUpLeg -9.496246 -22.611664 -4.637163
LeftLeg 17.375851 -0.000000 -0.000000
LeftFoot -21.247314 18.245095 -10.160070
LeftToeBase 10.043727 -0.000000 -0.000000
RightUpLeg -22.366873 19.441654 -5.867818
RightLeg 34.918784 -0.000000 -0.000000
RightFoot -26.542746 -18.333388 9.261620
RightToeBase -8.501189 -0.000000 0.000000
619
root -3.431932 31.724924 -4.928533 6.618339 21.745094 -0.273221
Spine -4.669370 -6.580582 -2.974154
Head 18.990167 4.420222 2.302861
LeftShoulder -17.970463 14.232941 13.897446
LeftArm 18.843165 -41.180199 -73.155303
LeftForeArm -11.771878 -0.000000 82.856447
LeftHand -11.331732 -0.000000 21.654341
LeftHandThumb1 -26.253704 0.000000 33.147579
RightShoulder -12.947970 -3.475341 -12.511684
RightArm 6.396779 -35.710656 87.500227
RightForeArm -23.575237 -0.000000 22.174571
RightHand -14.775214 -0.000000 10.092161
RightHandThumb1 -24.326973 -0.000000 -32.862282
LeftUpLeg -9.588379 -22.708676 -4.453706
LeftLeg 17.439164 -0.000000 -0.000000
LeftFoot -21.308887 18.460267 -10.016264
LeftToeBase 10.267861 -0.000000 -0.000000
RightUpLeg -22.021240 19.091285 -5.652424
RightLeg 31.289670 -0.000000 -0.000000
RightFoot -26.042443 -17.437674 9.038873
RightToeBase -8.873025 -0.000000 0.000000
620
root -3.444998 31.731131 -4.937848 6.619990 21.643989 -0.439193
Spine -4.670449 -6.447116 -2.884704
Head 19.087936 4.386681 2.322485
LeftShoulder -17.995341 14.225272 13.896378
LeftArm 19.041010 -41.236165 -73.263354
LeftForeArm -11.840459 -0.000000 82.767309
LeftHand -11.326869 0.000000 21.793361
LeftHandThumb1 -26.253704 0.000000 33.147579
RightShoulder -12.970281 -3.474602 -12.502153
RightArm 6.389153 -35.733649 87.507417
RightForeArm -23.587213 -0.000000 22.316717
RightHand -14.958652 -0.000000 9.911753
RightHandThumb1 -24.326973 -0.000000 -32.862282
LeftUpLeg -9.732430 -22.761443 -4.258919
LeftLeg 17.558174 -0.000000 -0.000000
LeftFoot -21.386689 18.511407 -10.263648
LeftToeBase 10.015658 -0.000000 -0.000000
RightUpLeg -21.795400 18.587939 -5.363568
RightLeg 27.956215 -0.000000 -0.000000
RightFoot -25.392880 -16.366162 9.009272
RightToeBase -9.013155 -0.000000 0.000000
621
root -3.458742 31.737877 -4.942730 6.601630 21.571591 -0.643497
Spine -4.679665 -6.339995 -2.750576
Head 19.244421 4.364039 2.333528
LeftShoulder -18.039335 14.215822 13.872075
LeftArm 19.197107 -41.265171 -73.301902
LeftForeArm -11.862447 -0.000000 82.677375
LeftHand -11.299517 -0.000000 21.781766
LeftHandThumb1 -26.253704 0.000000 33.147579
RightShoulder -12.986527 -3.482430 -12.485707
RightArm 6.394861 -35.736398 87.493696
RightForeArm -23.521346 -0.000000 22.402452
RightHand -14.762560 0.000000 10.146467
RightHandThumb1 -24.326973 -0.000000 -32.862282
LeftUpLeg -9.873705 -22.916702 -4.026869
LeftLeg 17.698146 -0.000000 -0.000000
LeftFoot -21.478606 18.746157 -10.364463
LeftToeBase 9.907257 -0.000000 -0.000000
RightUpLeg -21.588321 17.981518 -4.972939
RightLeg 24.899522 -0.000000 -0.000000
RightFoot -24.360984 -15.716947 8.465637
RightToeBase -9.313338 -0.000000 0.000000
622
root -3.474471 31.743810 -4.948435 6.580207 21.487724 -0.849352
Spine -4.681207 -6.230405 -2.611816
Head 19.390654 4.398980 2.352196
LeftShoulder -18.061521 14.194127 13.850491
LeftArm 19.348414 -41.337125 -73.341281
LeftForeArm -11.858823 -0.000000 82.586770
LeftHand -11.365049 -0.000000 21.782209
LeftHandThumb1 -26.253704 0.000000 33.147579
RightShoulder -13.002685 -3.454160 -12.485994
RightArm 6.382449 -35.793242 87.514963
RightForeArm -23.534497 -0.000000 22.464130
RightHand -14.749453 0.000000 10.115002
RightHandThumb1 -24.326973 -0.000000 -32.862282
LeftUpLeg -10.019928 -23.026352 -3.795265
LeftLeg 17.833857 -0.000000 -0.000000
LeftFoot -21.608527 18.976315 -10.487187
LeftToeBase 9.884627 -0.000000 -0.000000
RightUpLeg -21.450553 17.287962 -4.504902
RightLeg 22.107418 -0.000000 -0.000000
RightFoot -23.264210 -15.210683 7.878762
RightToeBase -9.745320 -0.000000 0.000000
623
root -3.492394 31.749782 -4.954807 6.539142 21.379365 -1.047264
Spine -4.635687 -6.095253 -2.504152
Head 19.463318 4.375913 2.383021
LeftShoulder -18.085895 14.139140 13.853338
LeftArm 19.482771 -41.424130 -73.403085
LeftForeArm -11.832254 0.000000 82.520059
LeftHand -11.392299 -0.000000 21.705958
LeftHandThumb1 -26.253704 0.000000 33.147579
RightShoulder -13.021334 -3.434137 -12.461700
RightArm 6.397042 -35.821806 87.530772
RightForeArm -23.585957 -0.000000 22.512883
RightHand -14.879223 0.000000 9.974718
RightHandThumb1 -24.326973 -0.000000 -32.862282
LeftUpLeg -10.126951 -23.135029 -3.580558
LeftLeg 17.949118 -0.000000 -0.000000
LeftFoot -21.576278 19.226598 -10.388997
LeftToeBase 9.521520 -0.000000 -0.000000
RightUpLeg -21.345156 16.454820 -3.962951
RightLeg 19.571556 -0.000000 -0.000000
RightFoot -22.208507 -14.663547 7.290929
RightToeBase -9.853668 -0.000000 0.000000
624
root -3.514293 31.756744 -4.962288 6.501827 21.257497 -1.268760
Spine -4.606926 -5.957995 -2.381384
Head 19.576829 4.365844 2.403360
LeftShoulder -18.090362 14.083952 13.862257
LeftArm 19.558498 -41.514402 -73.400280
LeftForeArm -11.851450 -0.000000 82.464882
LeftHand -11.390758 -0.000000 21.631290
LeftHandThumb1 -26.253704 0.000000 33.147579
RightShoulder -13.005519 -3.384618 -12.440029
RightArm 6.386850 -35.850272 87.567878
RightForeArm -23.574798 -0.000000 22.517518
RightHand -14.895009 -0.000000 9.944898
RightHandThumb1 -24.326973 -0.000000 -32.862282
LeftUpLeg -10.258942 -23.168527 -3.322679
LeftLeg 18.076833 -0.000000 -0.000000
LeftFoot -21.649150 19.375796 -10.415515
LeftToeBase 9.420430 -0.000000 -0.000000
RightUpLeg -21.332233 15.575640 -3.375273
RightLeg 17.369989 -0.000000 -0.000000
RightFoot -21.342344 -14.113171 6.670355
RightToeBase -10.232597 -0.000000 0.000000
625
root -3.532013 31.761112 -4.969123 6.464738 21.140788 -1.419488
Spine -4.550411 -5.835562 -2.329249
Head 19.671808 4.383921 2.437179
LeftShoulder -18.087181 14.051112 13.879717
LeftArm 19.609056 -41.588835 -73.363557
LeftForeArm -11.874204 -0.000000 82.416684
LeftHand -11.354241 -0.000000 21.642372
LeftHandThumb1 -26.253704 0.000000 33.147579
RightShoulder -12.975645 -3.372013 -12.427537
RightArm 6.414652 -35.917051 87.622350
RightForeArm -23.739642 -0.000000 22.490208
RightHand -14.892548 -0.000000 9.873378
RightHandThumb1 -24.326973 -0.000000 -32.862282
LeftUpLeg -10.335349 -23.252142 -3.149887
LeftLeg 18.127389 -0.000000 -0.000000
LeftFoot -21.699255 19.465710 -10.579833
LeftToeBase 9.507894 -0.000000 -0.000000
RightUpLeg -21.297635 14.623447 -2.795466
RightLeg 15.325419 -0.000000 -0.000000
RightFoot -20.840993 -13.688804 6.374387
RightToeBase -10.199443 -0.000000 0.000000
626
root -3.551371 31.766034 -4.977166 6.442820 21.021645 -1.554500
Spine -4.507266 -5.724782 -2.304511
Head 19.769553 4.402495 2.483771
LeftShoulder -18.079929 14.036843 13.912060
LeftArm 19.663195 -41.675052 -73.348759
LeftForeArm -11.929702 0.000000 82.396262
LeftHand -11.316123 -0.000000 21.629932
LeftHandThumb1 -26.253704 0.000000 33.147579
RightShoulder -12.922826 -3.317733 -12.410304
RightArm 6.380558 -35.909174 87.691665
RightForeArm -23.750027 -0.000000 22.500368
RightHand -14.876940 -0.000000 9.894582
RightHandThumb1 -24.326973 -0.000000 -32.862282
LeftUpLeg -10.423803 -23.281662 -2.990297
LeftLeg 18.191747 -0.000000 -0.000000
LeftFoot -21.826620 19.635346 -10.713775
LeftToeBase 9.739819 -0.000000 -0.000000
RightUpLeg -21.323301 13.566216 -2.180834
RightLeg 13.498144 -0.000000 -0.000000
RightFoot -20.255110 -13.176241 5.960599
RightToeBase -10.087088 -0.000000 0.000000
627
root -3.568647 31.771520 -4.980874 6.365185 20.896450 -1.674243
Spine -4.389194 -5.603640 -2.301796
Head 19.846346 4.405646 2.491212
LeftShoulder -18.081059 14.060073 13.908141
LeftArm 19.762861 -41.746543 -73.318658
LeftForeArm -11.997735 0.000000 82.392580
LeftHand -11.294395 -0.000000 21.744062
LeftHandThumb1 -26.253704 0.000000 33.147579
RightShoulder -12.898544 -3.248658 -12.379191
RightArm 6.374551 -35.956526 87.741298
RightForeArm -23.733406 -0.000000 22.464778
RightHand -14.789993 -0.000000 10.025092
RightHandThumb1 -24.326973 -0.000000 -32.862282
LeftUpLeg -10.421455 -23.218972 -2.877363
LeftLeg 18.236828 -0.000000 -0.000000
LeftFoot -21.920815 19.723224 -10.732277
LeftToeBase 10.053445 -0.000000 -0.000000
RightUpLeg -21.301774 12.479191 -1.518150
RightLeg 11.837093 -0.000000 -0.000000
RightFoot -19.763496 -12.519015 5.986258
RightToeBase -10.111980 -0.000000 0.000000
